<?xml version="1.0" standalone="no"?>
<!DOCTYPE svg PUBLIC "-//W3C//DTD SVG 20010904//EN"
 "http://www.w3.org/TR/2001/REC-SVG-20010904/DTD/svg10.dtd">
<svg version="1.0" xmlns="http://www.w3.org/2000/svg"
 width="437.000000pt" height="115.000000pt" viewBox="0 0 437.000000 115.000000"
 preserveAspectRatio="xMidYMid meet">

<g transform="translate(0.000000,115.000000) scale(0.100000,-0.100000)"
fill="#000000" stroke="none">
<path d="M273 1057 l-142 -82 -1 -171 0 -171 63 -6 c71 -7 158 -36 210 -72
l35 -23 32 39 c17 22 54 51 81 65 l50 25 -18 32 c-15 25 -27 33 -53 35 -35 4
-60 17 -60 33 0 5 27 9 59 9 l59 0 30 -48 c28 -45 32 -48 66 -44 l36 4 0 147
0 146 -62 35 c-35 18 -99 56 -143 82 -44 26 -84 48 -90 47 -5 -1 -74 -38 -152
-82z"/>
<path d="M628 558 c-8 -21 2 -38 22 -38 19 0 30 17 23 38 -3 6 -13 12 -23 12
-10 0 -20 -6 -22 -12z"/>
<path d="M774 555 c-8 -19 3 -35 26 -35 19 0 30 17 23 38 -6 17 -42 15 -49 -3z"/>
<path d="M430 370 l0 -30 295 0 295 0 0 30 0 30 -295 0 -295 0 0 -30z"/>
<path d="M1637 343 c-3 -10 -23 -69 -46 -130 l-41 -113 25 0 c18 0 28 8 35 25
14 37 95 37 112 0 7 -17 19 -25 36 -25 15 0 22 5 19 13 -2 6 -24 65 -47 130
-37 102 -46 117 -65 117 -13 0 -25 -8 -28 -17z m43 -88 c25 -66 24 -75 -7 -75
-16 0 -32 3 -35 6 -6 6 20 94 28 94 3 0 9 -11 14 -25z"/>
<path d="M1810 230 l0 -130 24 0 c23 0 25 5 28 48 l3 47 45 3 c59 4 90 33 90
82 0 59 -31 80 -118 80 l-72 0 0 -130z m134 74 c20 -19 20 -23 -1 -46 -9 -10
-30 -18 -50 -18 -32 0 -33 1 -33 40 0 39 1 40 34 40 19 0 42 -7 50 -16z"/>
<path d="M2050 230 l0 -130 25 0 c23 0 25 3 25 50 l0 50 45 0 c57 0 95 32 95
80 0 19 -9 40 -25 55 -21 22 -33 25 -95 25 l-70 0 0 -130z m134 68 c17 -27 -5
-52 -48 -56 l-36 -3 0 41 0 41 36 -3 c22 -2 42 -10 48 -20z"/>
<path d="M2410 230 c0 -128 0 -130 23 -130 22 0 22 2 22 130 0 128 0 130 -22
130 -23 0 -23 -2 -23 -130z"/>
<path d="M2510 230 l0 -130 25 0 c24 0 25 2 25 75 0 41 3 75 8 75 4 0 29 -34
56 -75 38 -59 53 -75 72 -75 l24 0 0 130 0 130 -25 0 c-24 0 -25 -2 -25 -75 0
-41 -3 -75 -7 -74 -5 0 -29 34 -55 75 -39 60 -52 74 -73 74 l-25 0 0 -130z"/>
<path d="M2794 233 c35 -105 46 -129 63 -131 18 -3 26 12 62 120 23 68 41 126
41 131 0 4 -11 7 -24 7 -21 0 -26 -9 -47 -80 -12 -44 -26 -80 -29 -80 -4 0
-18 36 -31 80 -22 74 -26 80 -51 80 l-27 0 43 -127z"/>
<path d="M3000 230 l0 -130 89 0 c84 0 89 1 84 20 -5 17 -14 20 -64 20 l-59 0
0 34 0 35 52 3 c41 2 54 7 56 21 3 14 -5 17 -52 17 l-56 0 0 35 0 35 63 0 c56
0 63 2 63 20 0 18 -7 20 -88 20 l-88 0 0 -130z"/>
<path d="M3220 230 l0 -130 25 0 c24 0 25 2 25 75 0 41 3 75 8 75 4 0 28 -34
54 -75 38 -61 52 -75 73 -75 l25 0 0 130 0 130 -25 0 c-24 0 -25 -2 -25 -75 0
-41 -3 -75 -7 -74 -5 0 -29 34 -55 75 -39 60 -52 74 -73 74 l-25 0 0 -130z"/>
<path d="M3470 340 c0 -16 7 -20 35 -20 l35 0 0 -110 0 -110 25 0 25 0 0 110
0 110 35 0 c28 0 35 4 35 20 0 19 -7 20 -95 20 -88 0 -95 -1 -95 -20z"/>
<path d="M3705 335 c-22 -22 -25 -32 -25 -105 0 -73 3 -83 25 -105 34 -35 106
-35 140 0 22 22 25 32 25 105 0 73 -3 83 -25 105 -18 19 -35 25 -70 25 -35 0
-52 -6 -70 -25z m106 -31 c18 -22 18 -126 0 -148 -20 -24 -63 -16 -79 14 -15
30 -11 112 8 135 16 20 54 19 71 -1z"/>
<path d="M3920 230 l0 -130 25 0 c23 0 25 3 25 50 0 46 2 50 23 50 18 0 29
-11 47 -50 20 -43 27 -50 53 -50 16 0 27 3 25 8 -2 4 -14 28 -28 55 l-24 47
22 16 c29 20 31 85 2 114 -16 16 -33 20 -95 20 l-75 0 0 -130z m135 55 c0 -23
-6 -32 -26 -39 -41 -14 -59 -2 -59 39 l0 36 43 -3 c39 -3 42 -5 42 -33z"/>
<path d="M430 260 l0 -30 295 0 295 0 0 30 0 30 -295 0 -295 0 0 -30z"/>
</g>
</svg>
