<?xml version="1.0" standalone="no"?>
<!DOCTYPE svg PUBLIC "-//W3C//DTD SVG 20010904//EN"
 "http://www.w3.org/TR/2001/REC-SVG-20010904/DTD/svg10.dtd">
<svg version="1.0" xmlns="http://www.w3.org/2000/svg"
 width="253.000000pt" height="199.000000pt" viewBox="0 0 253.000000 199.000000"
 preserveAspectRatio="xMidYMid meet">

<g transform="translate(0.000000,199.000000) scale(0.100000,-0.100000)"
fill="#000000" stroke="none">
<path d="M850 1848 c-35 -5 -98 -20 -140 -34 -88 -30 -222 -103 -213 -117 3
-6 1 -7 -5 -3 -15 9 -154 -124 -207 -199 -55 -78 -100 -175 -127 -272 -30
-109 -31 -314 -1 -423 68 -246 223 -435 451 -550 411 -207 920 -34 1130 385
113 227 116 503 7 732 -162 344 -518 535 -895 481z m570 -448 l0 -50 -120 0
-120 0 0 -59 0 -59 39 5 c59 8 143 -21 179 -61 72 -83 66 -205 -16 -281 -81
-77 -236 -73 -312 9 l-24 27 36 36 36 36 35 -36 c29 -32 41 -37 78 -37 98 1
146 109 81 181 -24 27 -37 33 -83 36 -32 3 -74 -2 -104 -11 -27 -8 -50 -14
-51 -13 -1 1 0 75 3 165 l6 162 168 0 169 0 0 -50z m-551 -136 c17 -4 51 -24
76 -46 77 -68 93 -171 43 -276 -42 -89 -160 -126 -250 -79 l-48 24 0 -118 0
-119 -55 0 -55 0 0 305 0 305 50 0 c47 0 50 -1 50 -27 0 -24 1 -25 18 -10 42
39 106 54 171 41z m769 -287 c3 -25 7 -28 29 -22 17 4 29 1 34 -7 14 -21 11
-28 -16 -38 -26 -10 -32 -24 -15 -35 15 -9 12 -35 -6 -42 -9 -3 -21 3 -31 16
l-15 22 -24 -22 c-19 -18 -27 -20 -36 -11 -10 10 -10 17 1 34 12 19 11 23 -4
34 -10 7 -22 15 -27 16 -5 2 -6 11 -2 21 5 14 13 17 35 12 27 -6 29 -4 29 23
0 24 4 29 23 28 16 -1 23 -8 25 -29z"/>
<path d="M725 1146 c-60 -64 -51 -154 19 -197 57 -35 121 -16 150 45 20 42 20
76 2 120 -18 44 -52 66 -100 66 -31 0 -45 -7 -71 -34z"/>
<path d="M1920 1021 c0 -270 -2 -281 -55 -281 -19 0 -24 -6 -27 -36 -5 -42 5
-49 64 -41 52 7 96 49 108 103 5 21 10 144 10 272 l0 232 -50 0 -50 0 0 -249z"/>
<path d="M2195 1246 c-44 -20 -67 -50 -72 -98 -7 -63 20 -92 110 -119 40 -12
78 -26 85 -32 17 -13 15 -43 -5 -62 -21 -22 -105 -16 -133 10 -18 16 -20 16
-49 -5 -17 -12 -31 -25 -31 -30 0 -22 75 -53 138 -58 83 -5 133 13 162 60 48
79 3 155 -107 179 -64 15 -96 39 -86 66 4 10 11 21 17 25 19 13 86 8 111 -8
23 -15 27 -15 50 0 36 24 31 44 -17 66 -50 23 -129 25 -173 6z"/>
</g>
</svg>
