<?xml version="1.0" standalone="no"?>
<!DOCTYPE svg PUBLIC "-//W3C//DTD SVG 20010904//EN"
 "http://www.w3.org/TR/2001/REC-SVG-20010904/DTD/svg10.dtd">
<svg version="1.0" xmlns="http://www.w3.org/2000/svg"
 width="415.000000pt" height="121.000000pt" viewBox="0 0 415.000000 121.000000"
 preserveAspectRatio="xMidYMid meet">

<g transform="translate(0.000000,121.000000) scale(0.100000,-0.100000)"
fill="#000000" stroke="none">
<path d="M280 1161 c-25 -22 -43 -41 -40 -44 3 -3 124 -39 269 -81 273 -79
330 -102 369 -155 44 -60 46 -75 52 -399 l5 -314 53 42 54 43 -4 301 c-3 290
-4 303 -26 351 -27 60 -63 99 -117 130 -40 22 -517 165 -552 165 -10 0 -38
-18 -63 -39z"/>
<path d="M62 988 c-29 -22 -51 -42 -50 -43 2 -1 122 -39 268 -84 337 -104 344
-106 375 -142 l25 -31 0 -339 c0 -186 3 -339 6 -339 3 0 28 17 55 38 l49 37
-3 341 -2 341 -28 37 c-16 20 -43 44 -60 52 -32 14 -559 174 -574 174 -4 0
-32 -19 -61 -42z"/>
<path d="M3291 936 c-29 -31 -25 -73 11 -99 46 -34 108 -3 108 54 0 63 -75 92
-119 45z"/>
<path d="M4030 615 l0 -315 60 0 60 0 0 315 0 315 -60 0 -60 0 0 -315z"/>
<path d="M1456 895 c-85 -30 -135 -115 -116 -199 15 -69 77 -114 185 -135 131
-26 165 -45 165 -93 0 -94 -179 -105 -277 -16 l-22 20 -40 -33 c-22 -19 -41
-38 -41 -42 0 -5 10 -17 23 -28 131 -113 385 -108 464 10 28 41 32 135 8 181
-22 43 -87 76 -194 99 -113 25 -141 41 -141 80 0 78 138 92 228 24 l32 -24 40
31 c22 18 40 36 40 40 0 16 -67 61 -120 81 -60 23 -176 25 -234 4z"/>
<path d="M2970 805 c0 -54 0 -55 -30 -55 -28 0 -30 -2 -30 -40 0 -38 2 -40 30
-40 l30 0 0 -140 c0 -166 11 -203 64 -225 36 -15 113 -20 154 -9 19 5 22 13
22 53 l0 46 -50 -3 c-46 -4 -50 -2 -60 24 -6 15 -9 77 -8 138 l3 111 53 3 52
3 0 39 0 39 -52 3 -53 3 -3 53 -3 52 -60 0 -59 0 0 -55z"/>
<path d="M0 588 c0 -253 8 -295 73 -365 54 -59 82 -72 277 -128 91 -26 171
-50 177 -52 10 -4 13 10 13 51 l0 55 -132 42 c-165 52 -197 68 -241 119 -48
56 -57 103 -57 294 l0 165 -41 11 c-22 6 -47 14 -55 17 -12 4 -14 -27 -14
-209z"/>
<path d="M2047 735 c-36 -25 -37 -25 -37 -5 0 18 -6 20 -55 20 l-55 0 0 -295
0 -295 60 0 60 0 0 90 0 89 36 -24 c77 -53 194 -21 248 68 23 37 30 62 34 121
7 111 -28 192 -102 237 -48 29 -141 26 -189 -6z m106 -76 c38 -17 57 -60 57
-129 0 -98 -31 -140 -105 -140 -43 0 -79 33 -89 81 -26 133 45 230 137 188z"/>
<path d="M2494 735 c-121 -72 -135 -299 -24 -399 60 -54 160 -62 222 -16 28
21 28 21 28 0 0 -18 6 -20 60 -20 l60 0 0 225 0 225 -60 0 c-48 0 -60 -3 -60
-16 0 -13 -5 -12 -34 5 -49 31 -138 29 -192 -4z m175 -80 c65 -33 79 -170 25
-235 -21 -24 -34 -30 -66 -30 -55 0 -74 13 -94 65 -30 79 -5 183 49 205 32 13
55 12 86 -5z"/>
<path d="M3595 746 c-41 -18 -92 -77 -104 -123 -14 -50 -14 -151 0 -194 31
-90 111 -145 201 -137 29 3 62 14 79 27 29 21 29 21 29 1 0 -18 6 -20 65 -20
l65 0 0 225 0 225 -60 0 c-47 0 -60 -3 -60 -15 0 -19 -3 -19 -42 5 -39 23
-126 27 -173 6z m172 -98 c25 -20 43 -73 43 -122 0 -90 -35 -136 -104 -136
-37 0 -48 5 -70 31 -51 60 -34 207 28 238 25 13 82 7 103 -11z"/>
<path d="M3280 525 l0 -225 60 0 60 0 0 225 0 225 -60 0 -60 0 0 -225z"/>
<path d="M240 598 c0 -126 11 -171 53 -216 29 -32 57 -45 155 -75 l82 -25 0
55 c0 44 -4 56 -17 60 -10 2 -43 14 -73 26 -74 29 -90 62 -90 178 l0 86 -55
15 -55 15 0 -119z"/>
</g>
</svg>
